<?xml version="1.0" encoding="UTF-8" standalone="no"?>
<!DOCTYPE svg PUBLIC "-//W3C//DTD SVG 1.1//EN" "http://www.w3.org/Graphics/SVG/1.1/DTD/svg11.dtd">
<svg version="1.1" xmlns="http://www.w3.org/2000/svg" xmlns:xlink="http://www.w3.org/1999/xlink" preserveAspectRatio="xMidYMid meet" viewBox="0 0 640 640" width="640" height="640"><defs><path d="M251.29 465.01C241.86 404.41 195.84 417.53 230.86 362.36C230.86 362.36 230.86 362.36 230.86 362.36C230.86 362.36 230.86 362.36 230.86 362.36C266.52 385.38 275.67 431.33 251.29 465.01C251.29 465.01 251.29 465.01 251.29 465.01C251.29 465.01 251.29 465.01 251.29 465.01Z" id="b6Q52iOBL7"></path><path d="M126.86 384.7C190.09 371 193.85 416.24 235.58 365.41C235.58 365.41 235.58 365.41 235.58 365.41C235.58 365.41 235.58 365.41 235.58 365.41C199.92 342.39 151.24 351.03 126.86 384.7C126.86 384.7 126.86 384.7 126.86 384.7C126.86 384.7 126.86 384.7 126.86 384.7Z" id="k1Vtd2ODuu"></path><path d="M517.21 145.85C510.66 150.38 501.6 149.79 495.77 144.45C493.58 142.45 476.11 126.44 473.93 124.44C455.57 107.61 427.03 105.75 406.39 120.03C406.39 120.03 400.23 124.29 392.55 129.63C377.19 140.27 358.17 145.46 339.25 143.42C320.24 141.36 300.5 146.98 285.82 160.12C278.96 166.27 273.82 173.4 270.36 181.04C268.87 184.33 271.89 187.89 275.6 187.12C288.92 184.34 302.98 185.48 315.76 190.55C267.23 239.48 233.6 300.33 219.08 366.6C217.82 372.37 236.32 376.29 236.32 376.29C266.19 355.62 505.19 190.23 535.07 169.55C541.76 164.92 543.75 156.07 539.15 149.55C534.26 142.58 524.26 140.97 517.21 145.85C517.21 145.85 517.21 145.85 517.21 145.85Z" id="c3j0GwFRK9"></path><path d="M535.35 170.47C510.06 187.97 307.7 328 282.41 345.51C293.53 314.54 314.53 287.21 342.95 267.55C360.37 255.49 499.72 159.06 517.14 147.01C523.99 142.26 533.63 143.66 538.67 150.14C543.69 156.61 542.21 165.72 535.35 170.47Z" id="aVcutJtFq"></path><path d="M469.98 158.88C466.85 161.05 466.17 165.21 468.47 168.17C470.76 171.13 475.17 171.77 478.3 169.6C481.44 167.43 482.12 163.27 479.82 160.31C477.52 157.35 473.12 156.71 469.98 158.88Z" id="a5zFDl28gj"></path><path d="M380.03 299.72C380.2 299.75 380.29 299.76 380.31 299.76C399.11 302.5 416.7 290.33 419.6 272.58C419.89 270.76 421.38 261.64 424.06 245.24C424.06 245.24 424.06 245.24 424.06 245.24C405.1 242.48 387.37 254.75 384.44 272.65C383.86 276.26 382.38 285.28 380.03 299.72Z" id="cSlmATYz"></path></defs><g><g><g><use xlink:href="#b6Q52iOBL7" opacity="1" fill="#20c996" fill-opacity="1"></use><g><use xlink:href="#b6Q52iOBL7" opacity="1" fill-opacity="0" stroke="#000000" stroke-width="1" stroke-opacity="0"></use></g></g><g><use xlink:href="#k1Vtd2ODuu" opacity="1" fill="#20c996" fill-opacity="1"></use><g><use xlink:href="#k1Vtd2ODuu" opacity="1" fill-opacity="0" stroke="#000000" stroke-width="1" stroke-opacity="0"></use></g></g><g><use xlink:href="#c3j0GwFRK9" opacity="1" fill="#20c996" fill-opacity="1"></use><g><use xlink:href="#c3j0GwFRK9" opacity="1" fill-opacity="0" stroke="#000000" stroke-width="1" stroke-opacity="0"></use></g></g><g><use xlink:href="#aVcutJtFq" opacity="1" fill="#20c996" fill-opacity="1"></use><g><use xlink:href="#aVcutJtFq" opacity="1" fill-opacity="0" stroke="#000000" stroke-width="1" stroke-opacity="0"></use></g></g><g><use xlink:href="#a5zFDl28gj" opacity="1" fill="#4d4d4d" fill-opacity="1"></use><g><use xlink:href="#a5zFDl28gj" opacity="1" fill-opacity="0" stroke="#000000" stroke-width="1" stroke-opacity="0"></use></g></g><g><use xlink:href="#cSlmATYz" opacity="1" fill="#20c996" fill-opacity="1"></use><g><use xlink:href="#cSlmATYz" opacity="1" fill-opacity="0" stroke="#000000" stroke-width="1" stroke-opacity="0"></use></g></g></g></g></svg>