<?xml version="1.0" encoding="UTF-8" standalone="no" ?>
<!DOCTYPE svg PUBLIC "-//W3C//DTD SVG 1.1//EN" "http://www.w3.org/Graphics/SVG/1.1/DTD/svg11.dtd">
<svg xmlns="http://www.w3.org/2000/svg" xmlns:xlink="http://www.w3.org/1999/xlink" version="1.1" width="138.6536" height="109.13839999999999" xml:space="preserve">
<desc>Created with Fabric.js 1.6.0-rc.1</desc>
<defs></defs>
<g style="stroke: none; stroke-width: 1; stroke-dasharray: none; stroke-linecap: butt; stroke-linejoin: miter; stroke-miterlimit: 10; fill: none; fill-rule: nonzero; opacity: 1;" transform="translate(10 10) rotate(323.76) scale(0.26 0.26)" >
  <path d="M 47.525 341.84 L 47.525 341.84 c 28.792 -54.424 -14.232 -69.605 45.36 -94.69 l 0 0 l 0 0 C 106.507 285.823 86.199 328.218 47.525 341.84 L 47.525 341.84 z" style="stroke: none; stroke-width: 1; stroke-dasharray: none; stroke-linecap: butt; stroke-linejoin: miter; stroke-miterlimit: 10; fill: #20c996; fill-rule: nonzero; opacity: 1;" transform=" matrix(1 0 0 1 0 0) " stroke-linecap="round" />
  <path d="M 0 206.915 L 0 206.915 c 56.544 24.366 32.532 63.159 94.69 45.36 l 0 0 l 0 0 C 81.068 213.601 38.674 193.293 0 206.915 L 0 206.915 z" style="stroke: none; stroke-width: 1; stroke-dasharray: none; stroke-linecap: butt; stroke-linejoin: miter; stroke-miterlimit: 10; fill: #20c996; fill-rule: nonzero; opacity: 1;" transform=" matrix(1 0 0 1 0 0) " stroke-linecap="round" />
  <path d="M 440.743 232.272 L 440.743 232.272 c -7.709 0 -14.293 -5.562 -15.582 -13.162 l -4.828 -28.478 c -4.05 -23.95 -24.79 -41.47 -49.08 -41.47 c 0 0 -7.243 0.005 -16.294 0.015 c -18.081 0.019 -35.724 -6.446 -48.998 -18.724 c -13.329 -12.328 -31.779 -18.853 -50.822 -16.43 c -8.902 1.132 -17.076 4.036 -24.261 8.282 c -3.103 1.834 -2.903 6.416 0.396 7.87 c 11.845 5.221 21.932 14.033 28.7 25.315 c -66.229 12.442 -128.133 42.911 -178.632 88.492 c -4.39 3.97 7.44 17.53 7.44 17.53 h 351.548 c 7.878 0 14.653 -6.059 15.016 -13.928 C 455.734 239.189 449.042 232.272 440.743 232.272 z" style="stroke: none; stroke-width: 1; stroke-dasharray: none; stroke-linecap: butt; stroke-linejoin: miter; stroke-miterlimit: 10; fill: #20c996; fill-rule: nonzero; opacity: 1;" transform=" matrix(1 0 0 1 0 0) " stroke-linecap="round" />
  <path d="M 455.363 246.892 c 0 8.07 -6.55 14.62 -14.62 14.62 h -297.64 c 26.92 -18.87 59.23 -29.24 92.67 -29.24 h 204.97 C 448.813 232.272 455.363 238.812 455.363 246.892 z" style="stroke: none; stroke-width: 1; stroke-dasharray: none; stroke-linecap: butt; stroke-linejoin: miter; stroke-miterlimit: 10; fill: #20c996; fill-rule: nonzero; opacity: 1;" transform=" matrix(1 0 0 1 0 0) " stroke-linecap="round" />
  <circle cx="396.85" cy="223.02" r="6.68" style="stroke: none; stroke-width: 1; stroke-dasharray: none; stroke-linecap: butt; stroke-linejoin: miter; stroke-miterlimit: 10; fill: #4D4D4D; fill-rule: nonzero; opacity: 1;" transform="  matrix(1 0 0 1 0 0) "/>
  <path d="M 263.761 260.591 l -19.47 19.47 l 0.193 0.193 c 12.766 12.766 33.463 12.766 46.228 0 l 19.663 -19.663 l 0 0 C 297.503 247.719 276.633 247.719 263.761 260.591 z" style="stroke: none; stroke-width: 1; stroke-dasharray: none; stroke-linecap: butt; stroke-linejoin: miter; stroke-miterlimit: 10; fill: #20c996; fill-rule: nonzero; opacity: 1;" transform=" matrix(1 0 0 1 0 0) " stroke-linecap="round" />
</g>
</svg>