<?xml version="1.0" encoding="UTF-8" standalone="no"?>
<!DOCTYPE svg PUBLIC "-//W3C//DTD SVG 1.1//EN" "http://www.w3.org/Graphics/SVG/1.1/DTD/svg11.dtd">
<svg version="1.1" xmlns="http://www.w3.org/2000/svg" xmlns:xlink="http://www.w3.org/1999/xlink" preserveAspectRatio="xMidYMid meet" viewBox="0 0 640 640" width="1000" height="1000"><defs><path d="M157.57 203.12C155.24 187.28 143.88 190.71 152.52 176.29C152.52 176.29 152.52 176.29 152.52 176.29C152.52 176.29 152.52 176.29 152.52 176.29C161.32 182.3 163.58 194.31 157.57 203.12C157.57 203.12 157.57 203.12 157.57 203.12C157.57 203.12 157.57 203.12 157.57 203.12Z" id="b79KbMyfi"></path><path d="M126.86 182.13C142.46 178.54 143.39 190.37 153.69 177.08C153.69 177.08 153.69 177.08 153.69 177.08C153.69 177.08 153.69 177.08 153.69 177.08C144.89 171.07 132.88 173.33 126.86 182.13C126.86 182.13 126.86 182.13 126.86 182.13C126.86 182.13 126.86 182.13 126.86 182.13Z" id="bMjh8d6x4"></path><path d="M223.18 119.7C221.57 120.88 219.33 120.73 217.89 119.33C217.35 118.81 213.04 114.63 212.5 114.1C207.97 109.7 200.93 109.22 195.84 112.95C195.84 112.95 194.32 114.07 192.42 115.46C188.63 118.24 183.94 119.6 179.27 119.06C174.58 118.53 169.71 120 166.09 123.43C164.39 125.04 163.13 126.9 162.27 128.9C161.9 129.76 162.65 130.69 163.56 130.49C166.85 129.76 170.32 130.06 173.47 131.38C161.5 144.17 153.2 160.08 149.62 177.4C149.31 178.9 153.87 179.93 153.87 179.93C161.24 174.53 220.22 131.3 227.59 125.89C229.24 124.68 229.73 122.37 228.6 120.67C227.39 118.85 224.92 118.42 223.18 119.7C223.18 119.7 223.18 119.7 223.18 119.7Z" id="abMJw4zdx"></path><path d="M227.66 126.13C221.42 130.71 171.49 167.31 165.24 171.88C167.99 163.79 173.17 156.65 180.18 151.51C184.48 148.36 218.87 123.15 223.17 120C224.86 118.76 227.24 119.13 228.48 120.82C229.72 122.51 229.35 124.89 227.66 126.13Z" id="a2taulP6Oi"></path><path d="M211.53 123.11C210.76 123.67 210.59 124.76 211.16 125.53C211.72 126.31 212.81 126.47 213.58 125.91C214.36 125.34 214.52 124.25 213.96 123.48C213.39 122.71 212.3 122.54 211.53 123.11Z" id="j2hPllE4C4"></path><path d="M189.33 159.92C189.37 159.92 189.4 159.93 189.4 159.93C194.04 160.64 198.38 157.46 199.1 152.82C199.17 152.35 199.54 149.96 200.2 145.68C200.2 145.68 200.2 145.68 200.2 145.68C195.52 144.96 191.14 148.16 190.42 152.84C190.28 153.78 189.91 156.14 189.33 159.92Z" id="a3FTQDxooT"></path></defs><g><g><g><use xlink:href="#b79KbMyfi" opacity="1" fill="#20c996" fill-opacity="1"></use><g><use xlink:href="#b79KbMyfi" opacity="1" fill-opacity="0" stroke="#000000" stroke-width="1" stroke-opacity="0"></use></g></g><g><use xlink:href="#bMjh8d6x4" opacity="1" fill="#20c996" fill-opacity="1"></use><g><use xlink:href="#bMjh8d6x4" opacity="1" fill-opacity="0" stroke="#000000" stroke-width="1" stroke-opacity="0"></use></g></g><g><use xlink:href="#abMJw4zdx" opacity="1" fill="#20c996" fill-opacity="1"></use><g><use xlink:href="#abMJw4zdx" opacity="1" fill-opacity="0" stroke="#000000" stroke-width="1" stroke-opacity="0"></use></g></g><g><use xlink:href="#a2taulP6Oi" opacity="1" fill="#20c996" fill-opacity="1"></use><g><use xlink:href="#a2taulP6Oi" opacity="1" fill-opacity="0" stroke="#000000" stroke-width="1" stroke-opacity="0"></use></g></g><g><use xlink:href="#j2hPllE4C4" opacity="1" fill="#4d4d4d" fill-opacity="1"></use><g><use xlink:href="#j2hPllE4C4" opacity="1" fill-opacity="0" stroke="#000000" stroke-width="1" stroke-opacity="0"></use></g></g><g><use xlink:href="#a3FTQDxooT" opacity="1" fill="#20c996" fill-opacity="1"></use><g><use xlink:href="#a3FTQDxooT" opacity="1" fill-opacity="0" stroke="#000000" stroke-width="1" stroke-opacity="0"></use></g></g></g></g></svg>